<?xml version="1.0" standalone="no"?>
<!DOCTYPE svg PUBLIC "-//W3C//DTD SVG 20010904//EN"
        "http://www.w3.org/TR/2001/REC-SVG-20010904/DTD/svg10.dtd">
<svg version="1.0" xmlns="http://www.w3.org/2000/svg"
     width="849.000000pt" height="849.000000pt" viewBox="0 0 849.000000 849.000000"
     preserveAspectRatio="xMidYMid meet">
    <metadata>
        Created by potrace 1.11, written by Peter Selinger 2001-2013
    </metadata>
    <g transform="translate(0.000000,849.000000) scale(0.100000,-0.100000)"
       fill="#000000" stroke="none">
        <path d="M4147 8483 c-1 -1 -56 -4 -122 -7 -66 -4 -136 -9 -155 -11 -19 -3
-60 -7 -90 -9 -30 -2 -86 -9 -125 -15 -38 -6 -84 -13 -100 -14 -17 -2 -36 -7
-43 -11 -7 -4 -12 -5 -12 -3 0 3 -39 -3 -86 -14 -47 -10 -89 -18 -92 -17 -4 1
-14 -2 -22 -5 -37 -15 -182 -47 -190 -42 -6 4 -10 2 -10 -2 0 -5 -44 -21 -97
-37 -54 -16 -112 -35 -130 -42 -17 -8 -35 -14 -41 -14 -5 0 -23 -7 -38 -15
-16 -8 -45 -18 -64 -21 -19 -4 -37 -10 -40 -13 -6 -8 -149 -69 -170 -73 -8 -2
-17 -6 -20 -9 -3 -3 -48 -26 -100 -49 -52 -24 -100 -48 -107 -53 -7 -5 -27
-16 -45 -26 -133 -70 -274 -156 -386 -234 -45 -31 -86 -57 -92 -57 -5 0 -10
-4 -10 -9 0 -5 -15 -19 -32 -30 -18 -11 -46 -32 -62 -46 -16 -14 -32 -25 -36
-25 -3 0 -15 -8 -26 -18 -10 -9 -55 -48 -99 -86 -44 -38 -110 -97 -147 -132
-37 -35 -72 -64 -78 -64 -5 0 -10 -4 -10 -8 0 -5 -33 -43 -73 -84 -39 -41 -97
-103 -127 -138 -30 -35 -64 -73 -75 -85 -11 -12 -46 -56 -79 -98 -32 -42 -63
-77 -67 -77 -5 0 -8 -3 -7 -7 3 -10 -68 -117 -99 -150 -13 -13 -23 -27 -23
-31 0 -8 -83 -140 -100 -159 -6 -7 -14 -21 -18 -30 -13 -33 -84 -153 -93 -159
-5 -3 -9 -11 -9 -18 0 -7 -20 -50 -45 -96 -25 -46 -45 -87 -45 -91 0 -5 -20
-50 -44 -101 -24 -51 -58 -135 -77 -185 -18 -51 -37 -93 -42 -93 -4 0 -6 -4
-3 -9 3 -5 -9 -53 -28 -108 -18 -54 -43 -136 -55 -183 -12 -47 -25 -92 -28
-100 -4 -8 -7 -22 -8 -30 -1 -8 -8 -40 -14 -70 -7 -30 -15 -68 -18 -85 -3 -16
-9 -32 -14 -33 -5 -2 -6 -8 -3 -13 5 -8 -9 -113 -23 -174 -3 -11 -6 -38 -8
-60 -2 -22 -6 -62 -9 -90 -22 -188 -27 -272 -26 -465 0 -205 15 -446 34 -560
2 -8 6 -40 10 -70 22 -164 126 -607 166 -705 27 -65 60 -163 60 -176 0 -9 7
-22 15 -29 9 -7 14 -15 11 -17 -2 -3 6 -28 19 -56 22 -50 37 -86 40 -97 3 -12
88 -189 108 -225 12 -22 38 -70 57 -107 19 -37 56 -101 83 -144 26 -42 47 -83
47 -90 0 -8 4 -14 10 -14 7 0 72 -91 115 -162 5 -10 36 -51 67 -91 32 -41 58
-79 58 -86 0 -6 4 -11 9 -11 4 0 37 -35 72 -77 82 -100 160 -184 280 -303 98
-97 241 -230 248 -230 2 0 38 -28 80 -63 42 -34 87 -70 101 -80 107 -73 148
-106 143 -111 -4 -3 0 -6 8 -6 15 0 137 -76 170 -105 10 -10 19 -15 19 -12 0
4 39 -18 87 -47 49 -29 129 -72 178 -97 50 -24 92 -47 93 -51 2 -5 10 -8 18
-8 7 0 30 -9 51 -19 67 -34 146 -68 223 -96 41 -15 85 -34 98 -41 12 -8 22
-12 22 -10 0 3 39 -9 88 -25 119 -41 278 -86 392 -110 52 -11 102 -23 110 -26
8 -4 24 -7 35 -8 29 -2 167 -26 185 -32 8 -3 42 -7 75 -9 33 -3 71 -7 85 -10
14 -2 61 -7 105 -10 97 -7 158 -12 165 -15 3 -1 10 0 15 1 6 1 42 1 80 0 39
-1 86 -2 105 -3 19 0 107 3 195 8 88 4 181 8 207 9 27 0 48 3 48 6 0 3 8 6 18
6 9 1 44 4 77 8 33 4 74 9 90 11 17 2 41 7 55 10 14 2 52 10 85 16 74 13 94
17 120 23 11 3 58 14 105 25 104 24 268 70 295 82 11 5 65 24 120 43 137 46
390 152 465 196 8 4 56 29 105 55 50 25 119 64 154 86 34 21 65 39 67 39 3 0
51 31 108 69 57 39 106 67 110 64 3 -4 6 -2 6 4 0 6 35 36 78 67 97 70 85 61
167 129 63 52 187 162 221 195 7 6 17 12 23 12 6 0 11 4 11 9 0 12 128 141
140 141 5 0 10 6 12 14 2 8 33 47 70 87 37 41 92 106 123 144 31 39 64 76 73
83 9 6 13 12 9 12 -4 0 23 38 58 85 36 47 65 87 65 90 0 3 5 11 11 18 8 10 64
93 101 150 26 40 108 186 148 263 27 50 53 100 58 110 19 34 72 154 72 162 0
4 5 13 12 20 6 6 13 17 14 24 3 19 53 148 67 172 6 12 12 26 13 33 6 33 57
174 65 179 5 3 7 9 4 14 -3 4 8 52 24 106 16 55 39 143 51 197 12 53 26 97 30
97 5 0 6 8 3 18 -2 10 3 56 12 103 19 92 21 103 30 199 3 36 9 72 11 80 3 8 8
56 10 105 5 105 7 116 17 133 5 6 4 12 -1 12 -5 0 -8 12 -6 28 10 84 3 467
-11 562 -3 19 -7 64 -9 100 -2 36 -7 72 -9 80 -3 8 -12 60 -20 115 -8 55 -18
111 -21 125 -8 33 -27 130 -31 155 -1 11 -3 20 -4 20 -2 0 -4 7 -6 15 -1 8
-12 51 -23 94 -12 44 -19 83 -16 88 3 4 1 8 -4 8 -5 0 -21 46 -37 103 -16 56
-32 107 -36 112 -6 9 -56 143 -63 170 -1 6 -15 36 -29 69 -15 32 -27 60 -27
63 0 3 -23 53 -121 258 -6 11 -21 38 -34 60 -14 22 -28 47 -31 55 -14 31 -139
235 -146 238 -5 2 -8 9 -8 16 0 7 -8 21 -17 32 -30 34 -103 142 -103 154 0 5
-4 10 -8 10 -5 0 -39 39 -75 88 -37 48 -83 105 -103 127 -19 22 -46 54 -59 70
-13 17 -57 65 -98 107 -41 42 -72 80 -69 83 3 3 1 5 -5 5 -6 0 -48 35 -93 79
-45 43 -100 94 -123 112 -22 19 -57 48 -76 66 -20 18 -70 58 -111 90 -41 31
-77 60 -80 63 -3 3 -41 29 -85 59 -44 30 -83 60 -87 65 -4 6 -11 11 -16 11 -5
0 -46 24 -93 54 -46 30 -112 69 -147 87 -84 46 -106 58 -112 64 -8 8 -210 105
-270 130 -30 12 -73 31 -95 40 -22 10 -80 33 -130 51 -49 19 -92 36 -95 39 -3
3 -9 5 -15 5 -12 0 -152 43 -180 55 -11 5 -64 19 -117 31 -54 13 -98 27 -98
32 0 4 -4 5 -10 2 -5 -3 -27 -1 -47 4 -21 6 -56 13 -78 17 -22 3 -43 8 -47 10
-4 3 -24 7 -45 10 -21 2 -78 11 -128 19 -49 8 -120 17 -156 20 -36 4 -79 8
-95 10 -58 8 -472 24 -477 18z"/>
    </g>
</svg>
